<?xml version="1.0" standalone="no"?>
<!DOCTYPE svg PUBLIC "-//W3C//DTD SVG 20010904//EN"
 "http://www.w3.org/TR/2001/REC-SVG-20010904/DTD/svg10.dtd">
<svg version="1.0" xmlns="http://www.w3.org/2000/svg"
 width="512.000000pt" height="512.000000pt" viewBox="0 0 512.000000 512.000000"
 preserveAspectRatio="xMidYMid meet">
<metadata>
Created by potrace 1.11, written by Peter Selinger 2001-2013
</metadata>
<g transform="translate(0.000000,512.000000) scale(0.100000,-0.100000)"
fill="#000000" stroke="none">
<path d="M1038 4635 c-1 -1 -39 -6 -83 -10 -44 -3 -89 -8 -100 -11 -11 -2 -33
-6 -50 -9 -272 -45 -496 -119 -777 -257 l-28 -13 0 -1927 0 -1927 73 34 c198
92 482 179 717 220 47 8 96 17 109 20 13 2 56 7 95 10 39 3 87 8 106 10 58 8
370 8 440 1 114 -12 200 -24 245 -33 17 -3 39 -7 50 -9 38 -5 80 -14 115 -24
19 -6 48 -14 64 -17 40 -7 313 -101 356 -123 19 -10 52 -25 73 -33 l37 -16 0
1927 0 1928 -117 46 c-188 73 -458 150 -613 173 -19 3 -46 7 -60 10 -14 2 -47
7 -75 10 -27 3 -66 8 -85 11 -38 6 -486 15 -492 9z"/>
<path d="M3689 4636 c-2 -2 -40 -7 -84 -11 -112 -10 -118 -11 -230 -30 -199
-34 -564 -139 -666 -191 -15 -7 -29 -10 -33 -7 -3 4 -6 1 -6 -5 0 -7 -7 -12
-15 -12 -13 0 -15 -221 -15 -1929 l0 -1930 93 41 c96 42 326 123 374 132 15 3
46 10 68 16 22 6 51 13 65 16 100 19 130 24 170 29 25 3 56 7 70 10 42 8 239
18 355 17 191 -1 368 -21 598 -67 181 -36 443 -121 605 -196 l82 -38 -2 1927
-3 1927 -75 37 c-224 111 -498 200 -720 233 -14 2 -59 9 -100 16 -67 10 -522
23 -531 15z"/>
</g>
</svg>
